<?xml version="1.0" encoding="UTF-8"?>
<svg width="512px" height="512px" viewBox="0 0 512 512" version="1.1" xmlns="http://www.w3.org/2000/svg" xmlns:xlink="http://www.w3.org/1999/xlink">
    <title>turtle_south</title>
    <g id="Page-1" stroke="none" stroke-width="1" fill="none" fill-rule="evenodd">
        <g id="turtle_south" transform="translate(256.000000, 256.000000) rotate(90.000000) translate(-256.000000, -256.000000) ">
            <rect id="Rectangle" x="0" y="0" width="512" height="512"></rect>
            <g id="turtle_new" transform="translate(79.000000, 39.000000)" fill-rule="nonzero">
                <path d="M341.019923,92.6047864 C348.731794,100.370387 353,110.611273 353,121.580183 C353,132.549094 348.731794,142.78998 341.019923,150.55558 L311.482001,180.113397 C313.907117,190.354283 315.168178,201.031984 315.168178,211.95236 L315.168178,255.585328 C315.168178,266.408633 313.907117,276.940729 311.579005,287.03601 C309.250893,297.131291 305.758725,306.838291 301.345012,315.962872 L317.205276,331.833818 C335.781671,350.422724 335.781671,380.660031 317.205276,399.248938 C308.183842,408.276448 296.252267,413.227019 283.544655,413.227019 C270.837043,413.227019 258.856966,408.276448 249.884034,399.248938 L233.005221,382.358756 C225.487359,385.707672 217.629981,388.425632 209.481588,390.415567 L201.381698,411.188548 C193.621325,431.039365 182.465787,434 176.548502,434 C170.582715,434 159.47568,431.039365 151.715306,411.188548 L143.518412,390.464102 C135.370019,388.474167 127.512641,385.756207 119.994779,382.407291 L103.115966,399.297473 C94.0945315,408.324983 82.1629569,413.275554 69.4553449,413.275554 C56.7477329,413.275554 44.7676559,408.324983 35.7947238,399.297473 C26.7732894,390.318497 21.8260511,378.330351 21.8260511,365.61418 C21.8260511,352.898009 26.7732894,340.909864 35.7947238,331.930888 L51.6549876,316.059942 C42.7790602,297.762246 37.8318219,277.280474 37.8318219,255.633863 L37.8318219,212.000895 C37.8318219,201.031984 39.0928827,190.402818 41.5179995,180.161932 L11.9800769,150.604115 C4.26820555,142.838515 0,132.597629 0,121.628718 C0,110.708343 4.26820555,100.418922 11.9800769,92.6533214 C19.6919483,84.9362559 29.9744435,80.6651756 40.9359714,80.6651756 C51.8974993,80.6651756 62.1314922,84.9362559 69.8918659,92.6533214 L85.0245947,107.796242 C91.281396,102.263252 98.071723,97.3126817 105.250069,92.9930664 C112.428414,88.6734511 120.043281,84.9847909 127.997664,81.9756207 L127.997664,48.5835384 C127.997664,21.7922165 149.775213,0 176.548502,0 C203.224787,0 225.002336,21.7922165 225.002336,48.5835384 L225.002336,81.9270857 C240.911102,87.8968911 255.461803,96.7302617 267.975405,107.747707 L283.108134,92.6047864 C290.820005,84.8877209 301.102501,80.6166406 312.064029,80.6166406 C322.977054,80.6166406 333.259549,84.8877209 341.019923,92.6047864 Z" id="Path" fill="#663333"></path>
                <path d="M326.773985,105.274983 C330.779871,109.312376 333,114.663137 333,120.354401 C333,126.045665 330.779871,131.445069 326.773985,135.433819 L304.476162,157.907015 C301.676869,151.048312 298.298411,144.481469 294.48558,138.206486 C290.672749,131.980146 286.377281,126.045665 281.64744,120.500331 L296.753973,105.274983 C300.759859,101.237591 306.068864,99 311.715715,99 C317.459094,99 322.768099,101.237591 326.773985,105.274983 L326.773985,105.274983 Z M303.076516,345.086367 C313.935845,356.031105 313.935845,373.834547 303.076516,384.779285 C297.815774,390.081403 290.81754,393 283.384932,393 C275.952325,393 268.954091,390.081403 263.693349,384.779285 L251,371.986102 C258.866981,366.878557 266.251324,361.041363 272.959976,354.47452 C279.668629,347.907677 285.701589,340.708471 290.962331,332.876903 L303.076516,345.086367 L303.076516,345.086367 Z" id="Shape" fill="#F9DCB2"></path>
                <path d="M295,244 L295,255.966604 C295,292.447789 278.420499,325.150047 252.360053,347 L221,292.883819 L249.345598,244 L295,244 L295,244 Z" id="Path" fill="#9ACE57"></path>
                <path d="M296,211.025665 L296,223 L250.97006,223 L224,175.684411 L255.185629,121 C280.191617,142.815589 296,175.102662 296,211.025665 L296,211.025665 Z" id="Path" fill="#6A973A"></path>
                <path d="M238,110.239437 L206.338095,165 L148.146032,165 L116,109.466801 C124.859524,104.251509 134.445238,100.098592 144.563492,97.2977867 C154.681746,94.4969819 165.33254,93 176.370635,93 C198.930952,93 220.038889,99.3259557 238,110.239437 L238,110.239437 Z" id="Path" fill="#9ACE57"></path>
                <path d="M204.688564,301.602862 L237,357.442372 C235.394161,358.364937 233.788321,359.287503 232.13382,360.161513 L232.085158,360.161513 C231.06326,360.744186 229.992701,361.229747 228.922141,361.763864 C213.058394,369.629951 195.199513,374 176.318735,374 C157.486618,374 139.627737,369.629951 123.715328,361.81242 C122.644769,361.278303 121.574209,360.792742 120.552311,360.210069 C119.384428,359.57884 118.167883,358.947611 117,358.267825 L149.749392,301.602862 L204.688564,301.602862 L204.688564,301.602862 Z M204.688564,184 L233.009732,232.9931 L204.688564,281.937644 L147.997567,281.937644 L119.676399,232.9931 L147.997567,184 L204.688564,184 Z" id="Shape" fill="#6A973A"></path>
                <path d="M207,53.9899139 L207,75.4103321 C202.244332,74.4410824 197.389589,73.6656827 192.485306,73.1325953 C187.581024,72.6479705 182.577666,72.3571956 177.524769,72.3571956 C167.418976,72.3571956 157.511335,73.3749077 148,75.4103321 L148,53.9899139 C149.634761,55.2499385 151.665827,56.0253383 153.895046,56.0253383 C159.096558,56.0253383 163.307305,51.9060271 163.307305,46.8174662 C163.307305,41.7289053 159.096558,37.6095941 153.895046,37.6095941 C152.309824,37.6095941 150.823678,37.997294 149.486146,38.6757688 C153.399664,27.2386224 164.446683,19 177.475231,19 C190.45424,19 201.501259,27.2870849 205.464316,38.6757688 C204.176322,37.997294 202.690176,37.6095941 201.104954,37.6095941 C195.903442,37.6095941 191.692695,41.7289053 191.692695,46.8174662 C191.692695,51.9060271 195.903442,56.0253383 201.104954,56.0253383 C203.334173,56.0253383 205.365239,55.2499385 207,53.9899139 Z M188.175483,392.742681 L184.162888,402.774416 C181.339211,409.898401 178.515533,412.466913 177.475231,413 C176.434929,412.466913 173.611251,409.849938 170.787573,402.774416 L166.774979,392.742681 C170.292191,392.984994 173.858942,393.130381 177.475231,393.130381 C181.09152,393.130381 184.65827,393.033456 188.175483,392.742681 Z" id="Shape" fill="#F9DCB2"></path>
                <path d="M102.34026,244 L132,294.42571 L100.464935,348 C86.8935065,337.101071 75.7896104,323.344201 68.0415584,307.698184 C60.2935065,292.052166 56,274.517 56,255.964602 L56,244 L102.34026,244 L102.34026,244 Z" id="Path" fill="#9ACE57"></path>
                <path d="M99.6399474,120 L131,174.141647 L102.703022,223 L57,223 L57,211.027765 C57.0486202,174.577882 73.5795007,141.860235 99.6399474,120 L99.6399474,120 Z" id="Path" fill="#6A973A"></path>
                <path d="M101,372.031276 L88.306651,384.777925 C83.0459094,390.08092 76.0476751,393 68.6150677,393 C61.1824603,393 54.184226,390.08092 48.9234844,384.777925 C43.6627428,379.47493 40.7669217,372.420487 40.7669217,364.928181 C40.7669217,357.435876 43.6627428,350.381433 48.9234844,345.078438 L61.0376692,332.866953 C66.2984108,340.651167 72.3796351,347.900215 79.0400235,354.468145 C85.7486757,361.036075 93.0847557,366.922886 101,372.031276 Z M55.1977634,105.276022 L70.3042966,120.503889 C60.8446145,131.596393 53.122425,144.245739 47.5238376,157.916763 L25.2260153,135.439848 C21.2201295,131.401787 19,126.050141 19,120.357935 C19,114.665729 21.2201295,109.314082 25.2260153,105.276022 C29.2319011,101.237961 34.5409064,99 40.1877575,99 C45.8346086,99 51.1918776,101.237961 55.1977634,105.276022 L55.1977634,105.276022 Z" id="Shape" fill="#F9DCB2"></path>
            </g>
        </g>
    </g>
</svg>